<svg width="350" height="138" viewBox="0 0 350 138" fill="none" xmlns="http://www.w3.org/2000/svg">
<circle cx="278.5" cy="65.5" r="57.5" fill="#FF3D00"/>
<path d="M58.4711 80.2984C56.2827 80.2984 54.3218 79.9432 52.5881 79.2327C50.8545 78.5222 49.4619 77.4706 48.4104 76.078C47.3873 74.6855 46.8473 73.0087 46.7905 71.0477H54.5491C54.6628 72.1561 55.0465 73.0087 55.7001 73.6055C56.3538 74.1739 57.2064 74.4581 58.2579 74.4581C59.3379 74.4581 60.1905 74.2165 60.8157 73.7334C61.441 73.2218 61.7536 72.5255 61.7536 71.6445C61.7536 70.9056 61.4978 70.2946 60.9863 69.8114C60.5031 69.3283 59.8921 68.9304 59.1532 68.6178C58.4427 68.3052 57.4195 67.9499 56.0838 67.552C54.1512 66.9552 52.5739 66.3584 51.3519 65.7616C50.1298 65.1648 49.0783 64.2837 48.1973 63.1185C47.3162 61.9533 46.8757 60.4328 46.8757 58.5571C46.8757 55.7719 47.8846 53.5978 49.9025 52.0347C51.9203 50.4432 54.5491 49.6474 57.789 49.6474C61.0857 49.6474 63.743 50.4432 65.7608 52.0347C67.7786 53.5978 68.8586 55.7862 69.0007 58.5997H61.1141C61.0573 57.6335 60.7021 56.8803 60.0484 56.3403C59.3947 55.7719 58.5563 55.4877 57.5332 55.4877C56.6522 55.4877 55.9417 55.7293 55.4017 56.2125C54.8617 56.6672 54.5918 57.335 54.5918 58.2161C54.5918 59.1823 55.0465 59.9355 55.9559 60.4755C56.8654 61.0154 58.2864 61.598 60.2189 62.2233C62.1515 62.8769 63.7146 63.5022 64.9082 64.099C66.1303 64.6958 67.1818 65.5626 68.0628 66.6994C68.9439 67.8362 69.3844 69.2999 69.3844 71.0903C69.3844 72.7955 68.9439 74.3444 68.0628 75.737C67.2102 77.1296 65.9598 78.238 64.3114 79.0621C62.663 79.8863 60.7163 80.2984 58.4711 80.2984ZM88.4926 55.9567C91.2209 55.9567 93.4093 56.8661 95.0576 58.685C96.706 60.4755 97.5302 62.948 97.5302 66.1026V80H90.2831V67.0831C90.2831 65.4916 89.871 64.2553 89.0468 63.3743C88.2226 62.4933 87.1142 62.0528 85.7216 62.0528C84.3291 62.0528 83.2207 62.4933 82.3965 63.3743C81.5723 64.2553 81.1602 65.4916 81.1602 67.0831V80H73.8705V48.4538H81.1602V59.4097C81.8992 58.3582 82.9081 57.5198 84.187 56.8945C85.4659 56.2693 86.9011 55.9567 88.4926 55.9567ZM106.262 53.7399C104.983 53.7399 103.932 53.3705 103.107 52.6315C102.312 51.8642 101.914 50.9263 101.914 49.818C101.914 48.6812 102.312 47.7433 103.107 47.0044C103.932 46.237 104.983 45.8534 106.262 45.8534C107.512 45.8534 108.536 46.237 109.331 47.0044C110.156 47.7433 110.568 48.6812 110.568 49.818C110.568 50.9263 110.156 51.8642 109.331 52.6315C108.536 53.3705 107.512 53.7399 106.262 53.7399ZM109.886 56.2125V80H102.596V56.2125H109.886ZM122.458 59.5802C123.14 58.4718 124.121 57.5766 125.4 56.8945C126.678 56.2125 128.142 55.8714 129.79 55.8714C131.751 55.8714 133.528 56.3688 135.119 57.3635C136.711 58.3582 137.961 59.7792 138.871 61.6265C139.808 63.4738 140.277 65.6195 140.277 68.0636C140.277 70.5077 139.808 72.6676 138.871 74.5434C137.961 76.3907 136.711 77.8259 135.119 78.849C133.528 79.8437 131.751 80.341 129.79 80.341C128.114 80.341 126.65 80.0142 125.4 79.3605C124.149 78.6785 123.169 77.7832 122.458 76.6749V80H115.168V48.4538H122.458V59.5802ZM132.86 68.0636C132.86 66.2447 132.348 64.8237 131.325 63.8006C130.33 62.7491 129.094 62.2233 127.616 62.2233C126.167 62.2233 124.931 62.7491 123.907 63.8006C122.913 64.8521 122.415 66.2873 122.415 68.1062C122.415 69.9251 122.913 71.3603 123.907 72.4119C124.931 73.4634 126.167 73.9892 127.616 73.9892C129.066 73.9892 130.302 73.4634 131.325 72.4119C132.348 71.3319 132.86 69.8825 132.86 68.0636ZM142.652 68.0636C142.652 65.6195 143.107 63.4738 144.017 61.6265C144.954 59.7792 146.219 58.3582 147.811 57.3635C149.402 56.3688 151.178 55.8714 153.139 55.8714C154.816 55.8714 156.28 56.2125 157.53 56.8945C158.809 57.5766 159.79 58.4718 160.472 59.5802V56.2125H167.761V80H160.472V76.6322C159.761 77.7406 158.766 78.6358 157.488 79.3179C156.237 80 154.773 80.341 153.097 80.341C151.164 80.341 149.402 79.8437 147.811 78.849C146.219 77.8259 144.954 76.3907 144.017 74.5434C143.107 72.6676 142.652 70.5077 142.652 68.0636ZM160.472 68.1062C160.472 66.2873 159.96 64.8521 158.937 63.8006C157.942 62.7491 156.72 62.2233 155.271 62.2233C153.821 62.2233 152.585 62.7491 151.562 63.8006C150.567 64.8237 150.07 66.2447 150.07 68.0636C150.07 69.8825 150.567 71.3319 151.562 72.4119C152.585 73.4634 153.821 73.9892 155.271 73.9892C156.72 73.9892 157.942 73.4634 158.937 72.4119C159.96 71.3603 160.472 69.9251 160.472 68.1062ZM203.388 55.9567C206.343 55.9567 208.688 56.8519 210.422 58.6424C212.184 60.4328 213.065 62.9196 213.065 66.1026V80H205.818V67.0831C205.818 65.5484 205.406 64.369 204.581 63.5448C203.786 62.6922 202.677 62.2659 201.256 62.2659C199.835 62.2659 198.713 62.6922 197.889 63.5448C197.093 64.369 196.695 65.5484 196.695 67.0831V80H189.448V67.0831C189.448 65.5484 189.036 64.369 188.211 63.5448C187.416 62.6922 186.307 62.2659 184.886 62.2659C183.465 62.2659 182.343 62.6922 181.519 63.5448C180.723 64.369 180.325 65.5484 180.325 67.0831V80H173.035V56.2125H180.325V59.1966C181.064 58.2019 182.03 57.4203 183.224 56.8519C184.417 56.2551 185.767 55.9567 187.274 55.9567C189.064 55.9567 190.656 56.3403 192.048 57.1077C193.469 57.875 194.578 58.9692 195.373 60.3902C196.198 59.0829 197.32 58.0171 198.741 57.1929C200.162 56.3688 201.711 55.9567 203.388 55.9567ZM262.15 50.0737V80H254.86V67.6799H243.521V80H236.231V50.0737H243.521V61.797H254.86V50.0737H262.15ZM290.902 56.2125V80H283.612V76.7601C282.873 77.8117 281.864 78.6643 280.585 79.3179C279.335 79.9432 277.942 80.2558 276.407 80.2558C274.588 80.2558 272.983 79.8579 271.59 79.0621C270.198 78.238 269.118 77.0585 268.35 75.5238C267.583 73.9892 267.199 72.1845 267.199 70.1098V56.2125H274.446V69.1293C274.446 70.7209 274.858 71.9571 275.683 72.8382C276.507 73.7192 277.615 74.1597 279.008 74.1597C280.429 74.1597 281.551 73.7192 282.376 72.8382C283.2 71.9571 283.612 70.7209 283.612 69.1293V56.2125H290.902ZM303.427 59.5802C304.109 58.4718 305.09 57.5766 306.369 56.8945C307.648 56.2125 309.111 55.8714 310.76 55.8714C312.721 55.8714 314.497 56.3688 316.089 57.3635C317.68 58.3582 318.931 59.7792 319.84 61.6265C320.778 63.4738 321.247 65.6195 321.247 68.0636C321.247 70.5077 320.778 72.6676 319.84 74.5434C318.931 76.3907 317.68 77.8259 316.089 78.849C314.497 79.8437 312.721 80.341 310.76 80.341C309.083 80.341 307.619 80.0142 306.369 79.3605C305.118 78.6785 304.138 77.7832 303.427 76.6749V80H296.138V48.4538H303.427V59.5802ZM313.829 68.0636C313.829 66.2447 313.318 64.8237 312.294 63.8006C311.3 62.7491 310.063 62.2233 308.586 62.2233C307.136 62.2233 305.9 62.7491 304.877 63.8006C303.882 64.8521 303.385 66.2873 303.385 68.1062C303.385 69.9251 303.882 71.3603 304.877 72.4119C305.9 73.4634 307.136 73.9892 308.586 73.9892C310.035 73.9892 311.271 73.4634 312.294 72.4119C313.318 71.3319 313.829 69.8825 313.829 68.0636Z" fill="white"/>
</svg>
