<svg width="298" height="115" viewBox="0 0 298 115" fill="none" xmlns="http://www.w3.org/2000/svg">
<circle cx="240.5" cy="57.5" r="57.5" fill="#FF3D00"/>
<path d="M13.4711 72.2984C11.2827 72.2984 9.32176 71.9432 7.58814 71.2327C5.85452 70.5222 4.46194 69.4706 3.4104 68.078C2.38728 66.6855 1.8473 65.0087 1.79046 63.0477H9.54912C9.6628 64.1561 10.0465 65.0087 10.7001 65.6055C11.3538 66.1739 12.2064 66.4581 13.2579 66.4581C14.3379 66.4581 15.1905 66.2165 15.8157 65.7334C16.441 65.2218 16.7536 64.5255 16.7536 63.6445C16.7536 62.9056 16.4978 62.2946 15.9863 61.8114C15.5031 61.3283 14.8921 60.9304 14.1532 60.6178C13.4427 60.3052 12.4195 59.9499 11.0838 59.552C9.15124 58.9552 7.57393 58.3584 6.35187 57.7616C5.12981 57.1648 4.07827 56.2837 3.19725 55.1185C2.31623 53.9533 1.87572 52.4328 1.87572 50.5571C1.87572 47.7719 2.88463 45.5978 4.90245 44.0347C6.92027 42.4432 9.54912 41.6474 12.789 41.6474C16.0857 41.6474 18.743 42.4432 20.7608 44.0347C22.7786 45.5978 23.8586 47.7862 24.0007 50.5997H16.1141C16.0573 49.6335 15.7021 48.8803 15.0484 48.3403C14.3947 47.7719 13.5563 47.4877 12.5332 47.4877C11.6522 47.4877 10.9417 47.7293 10.4017 48.2125C9.86174 48.6672 9.59175 49.335 9.59175 50.2161C9.59175 51.1823 10.0465 51.9355 10.9559 52.4755C11.8654 53.0154 13.2864 53.598 15.2189 54.2233C17.1515 54.8769 18.7146 55.5022 19.9082 56.099C21.1303 56.6958 22.1818 57.5626 23.0628 58.6994C23.9439 59.8362 24.3844 61.2999 24.3844 63.0903C24.3844 64.7955 23.9439 66.3444 23.0628 67.737C22.2102 69.1296 20.9598 70.238 19.3114 71.0621C17.663 71.8863 15.7163 72.2984 13.4711 72.2984ZM43.4926 47.9567C46.2209 47.9567 48.4093 48.8661 50.0576 50.685C51.706 52.4755 52.5302 54.948 52.5302 58.1026V72H45.2831V59.0831C45.2831 57.4916 44.871 56.2553 44.0468 55.3743C43.2226 54.4933 42.1142 54.0528 40.7216 54.0528C39.3291 54.0528 38.2207 54.4933 37.3965 55.3743C36.5723 56.2553 36.1602 57.4916 36.1602 59.0831V72H28.8705V40.4538H36.1602V51.4097C36.8992 50.3582 37.9081 49.5198 39.187 48.8945C40.4659 48.2693 41.9011 47.9567 43.4926 47.9567ZM61.262 45.7399C59.9831 45.7399 58.9315 45.3705 58.1074 44.6315C57.3116 43.8642 56.9137 42.9263 56.9137 41.818C56.9137 40.6812 57.3116 39.7433 58.1074 39.0044C58.9315 38.237 59.9831 37.8534 61.262 37.8534C62.5125 37.8534 63.5356 38.237 64.3313 39.0044C65.1555 39.7433 65.5676 40.6812 65.5676 41.818C65.5676 42.9263 65.1555 43.8642 64.3313 44.6315C63.5356 45.3705 62.5125 45.7399 61.262 45.7399ZM64.8855 48.2125V72H57.5958V48.2125H64.8855ZM77.458 51.5802C78.1401 50.4718 79.1206 49.5766 80.3995 48.8945C81.6784 48.2125 83.142 47.8714 84.7904 47.8714C86.7514 47.8714 88.5276 48.3688 90.1192 49.3635C91.7107 50.3582 92.9612 51.7792 93.8706 53.6265C94.8085 55.4738 95.2774 57.6195 95.2774 60.0636C95.2774 62.5077 94.8085 64.6676 93.8706 66.5434C92.9612 68.3907 91.7107 69.8259 90.1192 70.849C88.5276 71.8437 86.7514 72.341 84.7904 72.341C83.1136 72.341 81.65 72.0142 80.3995 71.3605C79.149 70.6785 78.1685 69.7832 77.458 68.6749V72H70.1683V40.4538H77.458V51.5802ZM87.8598 60.0636C87.8598 58.2447 87.3482 56.8237 86.3251 55.8006C85.3304 54.7491 84.0941 54.2233 82.6163 54.2233C81.1669 54.2233 79.9306 54.7491 78.9075 55.8006C77.9128 56.8521 77.4154 58.2873 77.4154 60.1062C77.4154 61.9251 77.9128 63.3603 78.9075 64.4119C79.9306 65.4634 81.1669 65.9892 82.6163 65.9892C84.0657 65.9892 85.302 65.4634 86.3251 64.4119C87.3482 63.3319 87.8598 61.8825 87.8598 60.0636ZM97.6523 60.0636C97.6523 57.6195 98.1071 55.4738 99.0165 53.6265C99.9544 51.7792 101.219 50.3582 102.811 49.3635C104.402 48.3688 106.178 47.8714 108.139 47.8714C109.816 47.8714 111.28 48.2125 112.53 48.8945C113.809 49.5766 114.79 50.4718 115.472 51.5802V48.2125H122.761V72H115.472V68.6322C114.761 69.7406 113.766 70.6358 112.488 71.3179C111.237 72 109.773 72.341 108.097 72.341C106.164 72.341 104.402 71.8437 102.811 70.849C101.219 69.8259 99.9544 68.3907 99.0165 66.5434C98.1071 64.6676 97.6523 62.5077 97.6523 60.0636ZM115.472 60.1062C115.472 58.2873 114.96 56.8521 113.937 55.8006C112.942 54.7491 111.72 54.2233 110.271 54.2233C108.821 54.2233 107.585 54.7491 106.562 55.8006C105.567 56.8237 105.07 58.2447 105.07 60.0636C105.07 61.8825 105.567 63.3319 106.562 64.4119C107.585 65.4634 108.821 65.9892 110.271 65.9892C111.72 65.9892 112.942 65.4634 113.937 64.4119C114.96 63.3603 115.472 61.9251 115.472 60.1062ZM158.388 47.9567C161.343 47.9567 163.688 48.8519 165.422 50.6424C167.184 52.4328 168.065 54.9196 168.065 58.1026V72H160.818V59.0831C160.818 57.5484 160.406 56.369 159.581 55.5448C158.786 54.6922 157.677 54.2659 156.256 54.2659C154.835 54.2659 153.713 54.6922 152.889 55.5448C152.093 56.369 151.695 57.5484 151.695 59.0831V72H144.448V59.0831C144.448 57.5484 144.036 56.369 143.211 55.5448C142.416 54.6922 141.307 54.2659 139.886 54.2659C138.465 54.2659 137.343 54.6922 136.519 55.5448C135.723 56.369 135.325 57.5484 135.325 59.0831V72H128.035V48.2125H135.325V51.1966C136.064 50.2019 137.03 49.4203 138.224 48.8519C139.417 48.2551 140.767 47.9567 142.274 47.9567C144.064 47.9567 145.656 48.3403 147.048 49.1077C148.469 49.875 149.578 50.9692 150.373 52.3902C151.198 51.0829 152.32 50.0171 153.741 49.1929C155.162 48.3688 156.711 47.9567 158.388 47.9567Z" fill="#3758D0"/>
<path d="M226.184 42.0737V72H218.894V59.6799H207.554V72H200.265V42.0737H207.554V53.797H218.894V42.0737H226.184ZM254.935 48.2125V72H247.646V68.7601C246.907 69.8117 245.898 70.6643 244.619 71.3179C243.368 71.9432 241.976 72.2558 240.441 72.2558C238.622 72.2558 237.017 71.8579 235.624 71.0621C234.231 70.238 233.151 69.0585 232.384 67.5238C231.617 65.9892 231.233 64.1845 231.233 62.1098V48.2125H238.48V61.1293C238.48 62.7209 238.892 63.9571 239.716 64.8382C240.541 65.7192 241.649 66.1597 243.042 66.1597C244.463 66.1597 245.585 65.7192 246.409 64.8382C247.234 63.9571 247.646 62.7209 247.646 61.1293V48.2125H254.935ZM267.461 51.5802C268.143 50.4718 269.124 49.5766 270.403 48.8945C271.682 48.2125 273.145 47.8714 274.794 47.8714C276.755 47.8714 278.531 48.3688 280.122 49.3635C281.714 50.3582 282.964 51.7792 283.874 53.6265C284.812 55.4738 285.281 57.6195 285.281 60.0636C285.281 62.5077 284.812 64.6676 283.874 66.5434C282.964 68.3907 281.714 69.8259 280.122 70.849C278.531 71.8437 276.755 72.341 274.794 72.341C273.117 72.341 271.653 72.0142 270.403 71.3605C269.152 70.6785 268.172 69.7832 267.461 68.6749V72H260.172V40.4538H267.461V51.5802ZM277.863 60.0636C277.863 58.2447 277.351 56.8237 276.328 55.8006C275.334 54.7491 274.097 54.2233 272.62 54.2233C271.17 54.2233 269.934 54.7491 268.911 55.8006C267.916 56.8521 267.419 58.2873 267.419 60.1062C267.419 61.9251 267.916 63.3603 268.911 64.4119C269.934 65.4634 271.17 65.9892 272.62 65.9892C274.069 65.9892 275.305 65.4634 276.328 64.4119C277.351 63.3319 277.863 61.8825 277.863 60.0636Z" fill="white"/>
</svg>
