<svg width="965" height="563" viewBox="0 0 965 563" fill="none" xmlns="http://www.w3.org/2000/svg">
<g clip-path="url(#clip0)">
<path d="M965 0H0V562H965V0Z" fill="#423EDD"/>
<path d="M715.21 128.36C715.21 128.36 576.888 99.424 548.793 245.093C531.672 333.941 610.185 388.257 659.051 391.763C839.475 404.735 834.651 210.345 834.651 210.345" stroke="#CDD0C4" stroke-miterlimit="10" stroke-dasharray="4 4"/>
<path d="M516.63 508.605C516.013 508.338 515.406 508.07 514.81 507.793" stroke="#CDD0C4" stroke-miterlimit="10"/>
<path d="M511.298 506.06C460.253 479.323 450.473 406.379 450.473 406.379L449.479 388.465" stroke="#CDD0C4" stroke-miterlimit="10" stroke-dasharray="3.94 3.94"/>
<path d="M449.329 386.514L449.22 384.534" stroke="#CDD0C4" stroke-miterlimit="10"/>
<path d="M478.02 329.91H400.95C398.379 329.91 396.294 331.985 396.294 334.545V382.227C396.294 384.786 398.379 386.861 400.95 386.861H478.02C480.592 386.861 482.676 384.786 482.676 382.227V334.545C482.676 331.985 480.592 329.91 478.02 329.91Z" stroke="#F6A915" stroke-width="1.3061" stroke-miterlimit="10"/>
<path d="M474.399 344.566H452.453C450.909 344.566 449.658 345.812 449.658 347.349V363.906C449.658 365.443 450.909 366.689 452.453 366.689H474.399C475.943 366.689 477.195 365.443 477.195 363.906V347.349C477.195 345.812 475.943 344.566 474.399 344.566Z" fill="#CDD0C4"/>
<path d="M482.408 334.386C482.408 333.156 481.917 331.976 481.045 331.106C480.172 330.235 478.987 329.745 477.752 329.742H400.681C400.069 329.742 399.463 329.862 398.897 330.096C398.332 330.329 397.818 330.671 397.386 331.103C396.953 331.534 396.611 332.046 396.377 332.61C396.144 333.173 396.024 333.777 396.026 334.386V335.169L482.418 335.624L482.408 334.386Z" fill="#F6A915"/>
<path d="M476.319 379.394L474.32 392.941L479.304 388.426L486.327 388.95L476.319 379.394Z" fill="#4B53E4"/>
<path d="M432.576 347.102H443.629" stroke="#CDD0C4" stroke-width="0.717998" stroke-miterlimit="10"/>
<path d="M402.701 347.102H430.407" stroke="#CDD0C4" stroke-width="0.717998" stroke-miterlimit="10"/>
<path d="M421.523 351.696H443.629" stroke="#CDD0C4" stroke-width="0.717998" stroke-miterlimit="10"/>
<path d="M402.701 351.696H419.146" stroke="#CDD0C4" stroke-width="0.717998" stroke-miterlimit="10"/>
<path d="M438.784 356.291H443.629" stroke="#CDD0C4" stroke-width="0.717998" stroke-miterlimit="10"/>
<path d="M402.701 356.291H436.605" stroke="#CDD0C4" stroke-width="0.717998" stroke-miterlimit="10"/>
<path d="M421.822 360.648H443.629" stroke="#CDD0C4" stroke-width="0.717998" stroke-miterlimit="10"/>
<path d="M402.701 360.648H419.733" stroke="#CDD0C4" stroke-width="0.717998" stroke-miterlimit="10"/>
<path d="M429.224 365.481H443.629" stroke="#CDD0C4" stroke-width="0.717998" stroke-miterlimit="10"/>
<path d="M402.701 365.481H426.896" stroke="#CDD0C4" stroke-width="0.717998" stroke-miterlimit="10"/>
<path d="M427.512 371.215H405.656C404.018 371.215 402.691 372.534 402.691 374.161C402.691 375.788 404.018 377.107 405.656 377.107H427.512C429.149 377.107 430.477 375.788 430.477 374.161C430.477 372.534 429.149 371.215 427.512 371.215Z" fill="#4B53E4"/>
<path d="M919.948 76.3904H867.828C866.087 76.3904 864.675 77.7958 864.675 79.5295V111.773C864.675 113.507 866.087 114.912 867.828 114.912H919.948C921.69 114.912 923.102 113.507 923.102 111.773V79.5295C923.102 77.7958 921.69 76.3904 919.948 76.3904Z" stroke="#F6A915" stroke-width="0.883422" stroke-miterlimit="10"/>
<path d="M917.501 86.303H902.658C901.614 86.303 900.768 87.1454 900.768 88.1845V99.3845C900.768 100.424 901.614 101.266 902.658 101.266H917.501C918.545 101.266 919.391 100.424 919.391 99.3845V88.1845C919.391 87.1454 918.545 86.303 917.501 86.303Z" fill="#CDD0C4"/>
<path d="M922.913 79.4205C922.913 78.588 922.581 77.7895 921.989 77.2008C921.398 76.6121 920.596 76.2814 919.759 76.2814H867.639C866.803 76.2814 866.001 76.6121 865.41 77.2008C864.818 77.7895 864.486 78.588 864.486 79.4205V79.9454L922.923 80.2524L922.913 79.4205Z" fill="#F6A915"/>
<path d="M918.794 109.861L917.441 119.021L920.824 115.971L925.569 116.328L918.794 109.861Z" fill="#4B53E4"/>
<path d="M889.208 88.0161H896.689" stroke="#CDD0C4" stroke-width="0.485642" stroke-miterlimit="10"/>
<path d="M869.002 88.0161H887.715" stroke="#CDD0C4" stroke-width="0.485642" stroke-miterlimit="10"/>
<path d="M881.736 91.1256H896.659" stroke="#CDD0C4" stroke-width="0.485642" stroke-miterlimit="10"/>
<path d="M869.002 91.1256H880.124" stroke="#CDD0C4" stroke-width="0.485642" stroke-miterlimit="10"/>
<path d="M893.406 94.235H896.689" stroke="#CDD0C4" stroke-width="0.485642" stroke-miterlimit="10"/>
<path d="M869.002 94.235H891.884" stroke="#CDD0C4" stroke-width="0.485642" stroke-miterlimit="10"/>
<path d="M881.935 97.186H896.689" stroke="#CDD0C4" stroke-width="0.485642" stroke-miterlimit="10"/>
<path d="M869.002 97.186H880.522" stroke="#CDD0C4" stroke-width="0.485642" stroke-miterlimit="10"/>
<path d="M886.939 100.454H896.689" stroke="#CDD0C4" stroke-width="0.485642" stroke-miterlimit="10"/>
<path d="M869.002 100.454H885.367" stroke="#CDD0C4" stroke-width="0.485642" stroke-miterlimit="10"/>
<path d="M885.786 104.336H870.992C869.888 104.336 868.993 105.227 868.993 106.326V106.336C868.993 107.435 869.888 108.327 870.992 108.327H885.786C886.89 108.327 887.785 107.435 887.785 106.336V106.326C887.785 105.227 886.89 104.336 885.786 104.336Z" fill="#4B53E4"/>
<path d="M575.515 220.792C579.066 217.257 586.18 204.522 578.38 203.106C570.58 201.69 549.291 238.419 541.84 233.121C534.388 227.823 573.406 167.09 556.762 158.969C546.615 154.018 535.97 161.663 525.872 168.535C514.551 176.24 504.344 183.132 504.593 173.14C504.712 168.189 536.537 136.5 509.219 117.398C494.008 106.851 466.281 122.696 439.739 138.134C418.41 150.502 395.906 166.268 374.01 152.79C341.588 132.826 349.686 2.30798 255.425 -1.46497H0V422.818C0 422.818 19.3397 500.614 128.115 489.384C236.891 478.154 323.999 357.589 337.927 347.775C358.749 333.04 377.213 339.358 367.544 360.213C357.874 381.068 372.906 398.834 402.254 379.563C455.477 344.557 496.763 196.293 537.432 186.261C546.814 183.954 510.751 250.629 535.095 249.451C546.038 248.936 570.909 213.098 573.465 211.266C582.857 204.492 574.192 220.327 574.192 220.327L575.515 220.792Z" fill="#EDEDED"/>
<path d="M350.701 529.223C350.801 529.291 350.882 529.385 350.932 529.495C350.983 529.605 351.003 529.726 350.989 529.847C350.989 530.332 351.706 530.322 351.735 529.847C351.749 529.598 351.695 529.35 351.579 529.129C351.464 528.908 351.291 528.721 351.079 528.589C350.681 528.312 350.313 528.955 350.701 529.223Z" fill="black"/>
<path d="M822.424 218.663C839.006 218.663 852.448 205.282 852.448 188.776C852.448 172.271 839.006 158.89 822.424 158.89C805.842 158.89 792.4 172.271 792.4 188.776C792.4 205.282 805.842 218.663 822.424 218.663Z" fill="#48FFAF"/>
<path d="M824.941 215.316C841.523 215.316 854.965 201.935 854.965 185.429C854.965 168.923 841.523 155.543 824.941 155.543C808.359 155.543 794.917 168.923 794.917 185.429C794.917 201.935 808.359 215.316 824.941 215.316Z" stroke="#0C8563" stroke-width="2" stroke-miterlimit="10"/>
<path d="M809.252 191.322L816.594 198.62L838.282 177.032" stroke="white" stroke-width="4.66628" stroke-miterlimit="10"/>
<path d="M585.413 388.584C600 388.584 611.826 376.812 611.826 362.292C611.826 347.771 600 336 585.413 336C570.825 336 559 347.771 559 362.292C559 376.812 570.825 388.584 585.413 388.584Z" fill="#BF38FF"/>
<path d="M588.129 385.742C602.717 385.742 614.542 373.971 614.542 359.45C614.542 344.93 602.717 333.158 588.129 333.158C573.542 333.158 561.716 344.93 561.716 359.45C561.716 373.971 573.542 385.742 588.129 385.742Z" stroke="#7C1FC6" stroke-width="1.7593" stroke-miterlimit="10"/>
<path d="M585.324 365.174C590.708 365.174 595.073 360.829 595.073 355.469C595.073 350.11 590.708 345.765 585.324 345.765C579.939 345.765 575.574 350.11 575.574 355.469C575.574 360.829 579.939 365.174 585.324 365.174Z" stroke="white" stroke-width="3.51861" stroke-miterlimit="10"/>
<path d="M592.119 363.54L600.197 371.591L592.119 363.54Z" stroke="white" stroke-width="3.51861" stroke-miterlimit="10"/>
<path d="M688.459 205.948C689.17 204.08 689.569 202.11 689.643 200.115C689.643 199.918 689.564 199.729 689.424 199.59C689.285 199.451 689.095 199.372 688.897 199.372C688.699 199.372 688.509 199.451 688.369 199.59C688.229 199.729 688.151 199.918 688.151 200.115C688.088 201.973 687.725 203.808 687.076 205.552C686.728 206.443 688.171 206.829 688.509 205.948H688.459Z" fill="#221660"/>
<path d="M790.46 322.949L833.616 389.941C833.616 389.941 859.83 341.16 863.71 336.129C867.59 331.099 905.493 352.033 905.493 352.033C905.493 352.033 883.855 395.605 872.992 420.649C864.526 440.177 815.739 436.731 815.739 436.731L778.83 382.969L790.46 322.949Z" fill="#282D85"/>
<path d="M905.493 352.033C905.493 352.033 867.6 331.099 863.71 336.129C863.71 336.129 870.316 321.85 872.942 320.612C880.185 317.175 934.851 346.814 933.249 348.013C929.936 350.488 907.473 346.181 907.473 346.181L905.493 352.033Z" fill="#221660"/>
<path d="M713.937 374.601C720.901 388.386 768.295 468.063 788.112 480.056C807.929 492.048 860.377 468.836 893.018 457.279L877.518 413.905L816.127 429.75L785.436 386.049C785.436 386.049 804.417 341.021 790.41 322.929L713.937 374.601Z" fill="#282D85"/>
<path d="M723.278 395.1L798.866 354.063L801.413 338.932L723.278 395.1Z" fill="#221660"/>
<path d="M728.859 237.141C733.913 234.715 781.586 243.925 781.586 243.925L776.373 280.486L751.502 275.307L728.859 237.141Z" fill="#F6A915"/>
<path d="M776.403 280.486L755.64 275.99L738.728 248.183C743.479 249.733 747.93 252.077 751.89 255.115C752.228 255.382 764.604 263.087 764.942 263.364C770.374 267.899 778.452 265.117 778.452 265.117L776.403 280.486Z" fill="#F68E15"/>
<path d="M570.869 261.532C564.701 256.967 560.115 248.015 560.294 242.578C560.473 237.141 563.646 231.17 566.82 230.12C569.993 229.071 570.172 232.923 569.287 235.735C568.402 238.548 568.402 244.648 568.402 244.648L570.869 261.532Z" fill="#FE9DA7"/>
<path d="M569.287 235.735C568.401 238.538 568.402 244.648 568.402 244.648L570.869 261.482C567.764 256.677 565.516 251.373 564.223 245.806C562.562 237.567 569.287 235.735 569.287 235.735Z" fill="#FF6688"/>
<path d="M652.963 206.631C647.989 215.95 656.524 243.014 657.211 244.697C658.753 248.45 661.469 258.898 681.495 250.738L686.021 259.423C686.021 259.423 710.017 249.233 711.838 245.608C711.838 245.608 707.291 237.775 702.148 226.536C697.363 216.039 692.279 202.175 683.922 199.986C666.622 195.451 657.519 198.174 652.963 206.631Z" fill="#FE9DA7"/>
<path d="M644.169 217.504C644.169 217.504 648.715 228.08 667.537 218.712C667.537 218.712 670.263 223.852 675.725 224.149L676.64 230.497L681.197 228.684C681.197 228.684 683.017 246.509 686.35 248.015C689.683 249.52 706.078 242.281 708.236 238.954C709.032 237.706 706.595 224.704 706.107 218.415C705.302 207.918 705.481 197.62 695.035 202.838C695.035 202.838 691.433 194.847 687.792 192.728C684.151 190.608 680.311 194.54 680.311 194.54C680.311 194.54 676.979 185.182 667.259 186.39C657.539 187.598 655.42 193.639 655.42 193.639C655.42 193.639 640.856 182.458 629.933 196.966C621.616 207.998 632.967 219.921 639.035 218.752L644.169 217.504Z" fill="#221660"/>
<path d="M584.976 250.292C580.917 250.995 577.017 246.965 576.022 245.212C575.027 243.459 576.43 241.429 581.663 235.032C585.543 230.289 581.494 228.011 577.087 230.081C577.087 230.081 567.735 234.468 565.805 241.132C563.219 250.045 572.142 263.909 572.142 263.909C572.142 263.909 580.101 289.349 597.889 310.937C611.986 328.029 624.501 325.325 631.713 325.147C638.926 324.969 661.21 315.393 661.21 315.393L639.493 284.694L624.342 290.854C611.647 279.961 597.72 254.699 597.72 254.699L584.976 250.292Z" fill="#FE9DA7"/>
<path d="M581.623 235.032C576.39 241.429 574.928 243.449 575.983 245.212C577.037 246.975 580.957 250.995 584.936 250.292L578.271 252.53L576.37 256.67C576.37 256.67 572.043 249.262 573.087 244.44C574.132 239.617 581.623 235.032 581.623 235.032Z" fill="#FF6688"/>
<path d="M639.443 284.675L661.16 315.373C661.16 315.373 653.072 318.879 645.074 321.711C643.333 322.325 649.401 319.374 648.566 313.967C646.874 302.995 639.443 284.675 639.443 284.675Z" fill="#FF6688"/>
<path d="M781.586 244.469C781.248 244.588 799.404 249.213 804.238 246.905C811.003 243.667 820.683 220.624 820.683 220.624C820.683 220.624 816.923 207.948 819.529 206.76C822.136 205.571 824.444 212.226 824.444 212.226C824.444 212.226 828.493 191.212 831.099 191.5C833.706 191.787 834.671 196.055 834.72 202.135C834.72 202.135 835.476 204.274 836.053 201.977C836.63 199.679 837.924 191.935 840.53 191.084C843.137 190.232 844.798 198.699 843.346 204.462C843.346 204.462 848.37 194.56 849.822 194.886C851.274 195.213 853.075 201.303 849.902 208.206C849.902 208.206 854.12 202.789 855.572 203.65C857.025 204.512 856.04 213.236 848.459 224.515C848.459 224.515 845.405 262.076 818.803 277.327C809.541 282.644 798.031 283.367 787.824 281.714C783.99 281.111 780.191 280.308 776.443 279.307L781.586 244.469Z" fill="#FE9DA7"/>
<path d="M679.664 231.774C681.883 225.139 683.713 224.159 686.887 227.952C690.061 231.745 686.33 239.36 681.913 239.043C677.496 238.726 679.664 231.774 679.664 231.774Z" fill="#FE9DA7"/>
<path d="M877.518 413.905C877.518 413.905 892.54 408.122 895.813 409.568C899.086 411.014 924.783 471.183 923.32 479.501C921.858 487.819 898.887 454.932 898.887 454.932L893.057 457.23L877.518 413.905Z" fill="#221660"/>
<path d="M638.16 281.09C638.767 286.526 658.435 316.294 661.161 315.393C662.981 314.789 676.033 308.144 676.033 308.144C675.825 308.213 699.571 362.104 720.921 396.278C720.921 396.278 786.58 354.974 809.64 332.614C809.64 332.614 736.739 241.35 728.84 237.122L666.931 267.632L638.16 281.09Z" fill="#F6A915"/>
<path d="M792.529 366.144C790.887 373.01 788.38 379.641 785.068 385.881C784.999 386.003 784.963 386.141 784.963 386.282C784.963 386.422 784.999 386.56 785.068 386.683L815.41 430.176C815.5 430.325 815.635 430.441 815.797 430.508C815.958 430.574 816.137 430.586 816.306 430.542L874.474 415.173C874.679 415.116 874.852 414.981 874.957 414.798C875.061 414.614 875.088 414.396 875.031 414.193C874.974 413.989 874.839 413.816 874.654 413.712C874.469 413.608 874.251 413.582 874.046 413.638L822.752 427.185C820.812 427.7 817.997 429.057 815.968 428.987C817.211 428.987 816.584 429.463 815.968 428.185C815.188 426.872 814.314 425.618 813.351 424.432L795.116 398.239C792.629 394.684 789.415 391.08 787.426 387.217C786.301 385.029 787.157 385.574 788.51 382.712C790.919 377.533 792.796 372.125 794.111 366.57C794.35 365.58 792.808 365.144 792.569 366.144H792.529Z" fill="#221660"/>
<path d="M802.199 409.796L785.804 386.277C787.682 382.832 789.295 379.25 790.629 375.562C791.713 372.551 802.199 409.796 802.199 409.796Z" fill="#221660"/>
<path d="M787.784 281.743C783.95 281.141 780.151 280.338 776.403 279.337L781.586 244.469C781.586 244.469 782.213 268.236 784.69 273.633C786.431 277.555 787.784 281.743 787.784 281.743Z" fill="#FF6688"/>
<path d="M575.435 259.235L576.43 255.541L577.514 251.253L581.623 235.032C582.445 232.903 583.847 231.044 585.672 229.665C586.157 229.285 586.662 228.932 587.184 228.605C587.527 229.127 587.823 229.677 588.069 230.249C588.993 232.308 589.429 234.551 589.343 236.805C589.224 239.518 587.831 247.074 586.647 253.164C586.329 254.798 586.02 256.323 585.761 257.62C585.264 260.096 584.916 261.75 584.916 261.75C583.217 262.583 581.323 262.946 579.434 262.8C576.907 262.393 575.435 259.235 575.435 259.235Z" fill="#F6A915"/>
<path d="M589.343 236.805C589.429 234.551 588.993 232.308 588.07 230.249C587.823 229.677 587.527 229.127 587.184 228.605C586.662 228.932 586.157 229.285 585.672 229.665C583.847 231.044 582.445 232.903 581.623 235.032L583.981 233.468L584.747 234.785L586.597 233.676L587.781 236.102L588.826 234.923L589.343 236.805Z" fill="#FCDE98"/>
<path d="M588.07 230.249C587.823 229.677 587.527 229.127 587.184 228.605C586.662 228.932 586.157 229.285 585.672 229.665L588.07 230.249Z" fill="black"/>
<path d="M585.762 257.62C586.02 256.323 586.329 254.798 586.647 253.164C585.45 252.044 583.967 251.273 582.36 250.936C580.753 250.599 579.083 250.709 577.534 251.253C577.166 252.679 576.808 254.105 576.45 255.541L585.762 257.62Z" fill="#3A4B73"/>
<path d="M585.762 257.62C585.264 260.096 584.916 261.75 584.916 261.75C583.217 262.583 581.323 262.946 579.434 262.799C576.908 262.383 575.455 259.234 575.455 259.234L576.45 255.541C576.45 255.541 578.062 253.936 581.424 254.62C584.896 255.343 585.762 257.62 585.762 257.62Z" fill="#F65015"/>
<path d="M597.67 254.679C599.66 248.371 595.551 243.786 592.377 238.716C589.204 233.646 587.264 234.151 585.861 235.21C584.647 236.112 587.851 246.103 586.209 249.342C585.254 251.019 584.683 252.885 584.538 254.808C584.389 258.541 584.787 263.374 587.702 264.126C588.696 264.384 588.617 254.432 589.642 254.55C592.308 254.844 594.996 254.888 597.67 254.679V254.679Z" fill="#FE9DA7"/>
<path d="M416.888 517.696H405.606C400.329 517.696 395.268 515.609 391.537 511.895C387.805 508.181 385.709 503.143 385.709 497.891V497.891C385.709 492.638 387.805 487.6 391.537 483.886C395.268 480.172 400.329 478.085 405.606 478.085H407.805C413.082 478.085 418.142 480.172 421.874 483.886C425.605 487.6 427.701 492.638 427.701 497.891V516.567C427.721 516.779 427.658 516.99 427.524 517.157C427.39 517.323 427.197 517.431 426.985 517.458L416.888 517.696Z" stroke="#F6A915" stroke-width="0.826538" stroke-miterlimit="10"/>
<path d="M539.243 476.164L538.158 483.541L544.695 481.373L539.243 476.164Z" fill="#FF6688"/>
<path d="M742.369 186.202L740.937 195.857L749.502 193.015L742.369 186.202Z" fill="#FF6688"/>
<path d="M22.543 247.935L21.1204 257.6L29.6859 254.758L22.543 247.935Z" fill="#FF6688"/>
<path d="M433.979 305.441L432.556 315.106L441.122 312.264L433.979 305.441Z" fill="#FF6688"/>
<path d="M397.717 152.622C399.404 152.622 400.771 151.261 400.771 149.582C400.771 147.902 399.404 146.541 397.717 146.541C396.03 146.541 394.663 147.902 394.663 149.582C394.663 151.261 396.03 152.622 397.717 152.622Z" fill="#F6A915"/>
<path opacity="0.5" d="M336.097 124.844C337.146 124.844 337.997 123.998 337.997 122.953C337.997 121.908 337.146 121.062 336.097 121.062C335.047 121.062 334.197 121.908 334.197 122.953C334.197 123.998 335.047 124.844 336.097 124.844Z" fill="white"/>
<path d="M526.151 393.862C527.733 393.862 529.016 392.585 529.016 391.01C529.016 389.435 527.733 388.158 526.151 388.158C524.568 388.158 523.286 389.435 523.286 391.01C523.286 392.585 524.568 393.862 526.151 393.862Z" fill="#F6A915"/>
<path d="M158.925 459.438C160.508 459.438 161.791 458.161 161.791 456.586C161.791 455.011 160.508 453.734 158.925 453.734C157.343 453.734 156.06 455.011 156.06 456.586C156.06 458.161 157.343 459.438 158.925 459.438Z" fill="#F6A915"/>
<path d="M880.642 5.95203L889.158 7.21958L887.218 13.4484L894.689 14.7358L893.595 21.5587L900.857 22.4401L899.325 28.4412" stroke="#FF6688" stroke-miterlimit="10"/>
<path d="M520.224 293.442L512.177 298.066L516.823 306.076L524.87 301.452L520.224 293.442Z" fill="#4B53E4"/>
<path d="M489.375 151.009L484.61 153.747L487.361 158.49L492.125 155.752L489.375 151.009Z" fill="white"/>
<path d="M477.672 216.88L481.552 218.891L479.582 221.555L482.955 223.416L481.293 226.506L484.636 228.13L482.895 230.764" stroke="white" stroke-width="0.802874" stroke-miterlimit="10"/>
<path d="M11.53 30.5604L16.932 31.3229L15.7283 35.2741L20.4637 36.0564L19.7971 40.374L24.4033 40.8989L23.4582 44.7114" stroke="white" stroke-miterlimit="10"/>
<path d="M704.983 498.168L762.982 468.073C762.982 468.073 772.672 470.935 777.268 478.64C781.864 486.344 781.337 498.861 784.889 501.881C792.002 507.932 807.283 506.714 810.406 528.421L755.999 562.09C755.999 562.09 751.542 554.287 748.04 552.583C742.479 549.84 732.66 548.078 726.601 540.7C721.736 534.758 722.751 520.895 718.642 511.814C714.384 502.545 704.983 498.168 704.983 498.168Z" fill="#FFF9E1"/>
<path d="M725.009 503.842C738.808 497.781 750.437 487.631 764.017 481.244C765.39 480.6 764.196 478.57 762.823 479.214C749.244 485.621 737.574 495.771 723.816 501.832C722.433 502.446 723.636 504.476 725.009 503.862V503.842Z" fill="#D9C693"/>
<path d="M728.919 512.606C742.678 506.545 754.347 496.395 767.927 489.988C769.3 489.335 768.106 487.314 766.733 487.958C753.154 494.365 741.484 504.515 727.735 510.576C726.343 511.19 727.546 513.21 728.919 512.606Z" fill="#D9C693"/>
<path d="M732.839 523.311C746.597 517.25 758.267 507.1 771.846 500.693C773.219 500.039 772.025 498.019 770.652 498.663C757.073 505.07 745.403 515.22 731.655 521.281C730.262 521.895 731.466 523.915 732.839 523.311Z" fill="#D9C693"/>
<path d="M737.216 534.719C750.975 528.658 762.634 518.508 776.224 512.101C777.596 511.447 776.393 509.427 775.03 510.071C761.44 516.518 749.751 526.668 736.022 532.738C734.639 533.352 735.833 535.372 737.216 534.719V534.719Z" fill="#D9C693"/>
<path d="M748.169 539.67C761.928 533.61 773.587 523.459 787.177 517.052C788.55 516.409 787.346 514.379 785.983 515.072C772.394 521.479 760.734 531.629 746.976 537.69C745.583 538.304 746.786 540.334 748.169 539.67Z" fill="#D9C693"/>
<path d="M759.122 546.206C772.881 540.145 784.54 529.995 798.13 523.588C799.503 522.934 798.299 520.914 796.936 521.608C783.347 528.015 771.687 538.165 757.928 544.225C756.536 544.839 757.739 546.86 759.122 546.255V546.206Z" fill="#D9C693"/>
<path d="M627.883 470.995C625.495 470.133 623.904 468.113 624.61 465.667L625.326 462.993L631.365 440.989C631.525 440.378 631.873 439.831 632.36 439.425L636.12 436.315L637.115 435.523C637.223 435.433 637.351 435.37 637.488 435.34C637.625 435.309 637.767 435.311 637.903 435.346C638.039 435.381 638.165 435.447 638.27 435.54C638.375 435.633 638.457 435.749 638.508 435.88L638.955 437.058L640.478 441.088C640.704 441.68 640.738 442.328 640.577 442.94L634.787 465.013L634.011 468.034C633.8 468.934 633.35 469.762 632.708 470.43C631.713 471.42 630.479 471.747 628.35 471.143L627.883 470.995Z" stroke="#CDD0C4" stroke-miterlimit="10"/>
<path d="M638.926 437.058L638.478 435.88C638.427 435.749 638.346 435.633 638.241 435.54C638.136 435.447 638.01 435.381 637.874 435.346C637.738 435.311 637.595 435.309 637.458 435.34C637.321 435.37 637.193 435.433 637.085 435.523L636.091 436.315C636.162 436.527 636.294 436.713 636.471 436.85C636.648 436.988 636.862 437.07 637.085 437.088C637.696 437.186 638.319 437.176 638.926 437.058V437.058Z" fill="#CDD0C4"/>
<path d="M634.757 465.013L633.951 468.172C633.72 469.089 633.23 469.921 632.539 470.569C631.544 471.45 630.35 471.717 628.321 471.143L627.883 470.995C625.495 470.133 623.904 468.113 624.61 465.667L625.326 462.993C626.628 462.383 628.057 462.095 629.495 462.151C633.633 462.755 634.757 465.013 634.757 465.013Z" stroke="#CDD0C4" stroke-miterlimit="10"/>
<path d="M625.814 467.073C626.739 466.33 630.788 465.875 632.499 469.054" stroke="#CDD0C4" stroke-miterlimit="10"/>
<path d="M632.38 441.375L633.932 442.237L636.081 441.801L637.891 442.92L639.533 442.316" stroke="#CDD0C4" stroke-miterlimit="10"/>
<path d="M627.256 458.983C628.69 458.395 630.282 458.312 631.769 458.748C633.256 459.184 634.549 460.112 635.434 461.379" stroke="#CDD0C4" stroke-miterlimit="10"/>
<path d="M634.141 457.606L637.891 442.92" stroke="#CDD0C4" stroke-miterlimit="10"/>
<path d="M629.753 458.636L633.504 443.95" stroke="#CDD0C4" stroke-miterlimit="10"/>
<path d="M932.583 456.646C934.652 459.319 934.95 462.696 932.453 464.974L929.727 467.469L900.23 494.989C899.605 495.563 898.816 495.93 897.972 496.039L891.526 496.87L889.874 497.088C889.689 497.11 889.501 497.089 889.325 497.025C889.15 496.961 888.993 496.857 888.865 496.72C888.738 496.584 888.645 496.42 888.594 496.241C888.543 496.063 888.535 495.874 888.571 495.692L888.919 494.048L890.083 488.433C890.257 487.61 890.677 486.857 891.287 486.274L920.575 458.547L923.559 455.705C924.444 454.843 925.542 454.231 926.743 453.932C928.553 453.506 930.195 454.031 932.155 456.22L932.583 456.646Z" stroke="#FF6688" stroke-miterlimit="10"/>
<path d="M888.919 494.048L888.571 495.692C888.535 495.874 888.543 496.063 888.594 496.241C888.645 496.42 888.738 496.584 888.865 496.72C888.993 496.857 889.15 496.961 889.325 497.025C889.501 497.089 889.689 497.111 889.874 497.088L891.526 496.871C891.593 496.582 891.575 496.279 891.475 496C891.374 495.721 891.195 495.477 890.959 495.296C890.357 494.765 889.667 494.343 888.919 494.048V494.048Z" fill="#FF6688"/>
<path d="M920.575 458.468L923.738 455.497C924.654 454.629 925.8 454.041 927.041 453.803C928.752 453.497 930.324 454.071 932.195 456.15L932.583 456.616C934.652 459.29 934.95 462.666 932.453 464.944L929.727 467.44C929.727 467.44 926.285 467.014 924.445 465.459C920.217 461.854 920.575 458.468 920.575 458.468Z" stroke="#FF6688" stroke-miterlimit="10"/>
<path d="M932.105 462.528C930.533 462.706 925.609 460.329 925.977 455.596" stroke="#FF6688" stroke-miterlimit="10"/>
<path d="M899.355 493.83L898.221 491.771L895.495 490.731L894.261 488.196L891.993 487.71" stroke="#FF6688" stroke-miterlimit="10"/>
<path d="M924.694 470.618C922.662 470.26 920.814 469.223 919.453 467.678C918.093 466.134 917.303 464.174 917.212 462.122" stroke="#FF6688" stroke-miterlimit="10"/>
<path d="M915.969 467.281L894.261 488.196" stroke="#FF6688" stroke-miterlimit="10"/>
<path d="M921.639 469.232L899.932 490.147" stroke="#FF6688" stroke-miterlimit="10"/>
<path d="M959.97 230.853H903.324L894.709 236.349L894.142 230.853C893.087 230.853 892.074 230.436 891.328 229.693C890.582 228.95 890.163 227.943 890.163 226.892V212.197C890.163 211.146 890.582 210.138 891.328 209.396C892.074 208.653 893.087 208.235 894.142 208.235H959.97C961.026 208.235 962.038 208.653 962.784 209.396C963.531 210.138 963.95 211.146 963.95 212.197V226.892C963.95 227.943 963.531 228.95 962.784 229.693C962.038 230.436 961.026 230.853 959.97 230.853Z" stroke="#CDD0C4" stroke-width="1.81908" stroke-miterlimit="10"/>
<path d="M899.962 216.781H955.185" stroke="#CDD0C4" stroke-width="1.81908" stroke-miterlimit="10"/>
<path d="M899.962 222.832H955.185" stroke="#CDD0C4" stroke-width="1.81908" stroke-miterlimit="10"/>
<path d="M539.571 116.566H553.768L558.533 119.606L558.851 116.566C559.434 116.566 559.994 116.335 560.406 115.925C560.818 115.514 561.05 114.958 561.05 114.377V106.257C561.051 105.969 560.995 105.683 560.885 105.416C560.775 105.15 560.614 104.907 560.409 104.703C560.205 104.499 559.962 104.337 559.695 104.226C559.427 104.115 559.141 104.058 558.851 104.058H539.571C539.282 104.058 538.995 104.115 538.727 104.226C538.46 104.337 538.217 104.499 538.013 104.703C537.809 104.907 537.647 105.15 537.537 105.416C537.427 105.683 537.371 105.969 537.373 106.257V114.377C537.373 114.665 537.429 114.949 537.54 115.215C537.65 115.48 537.812 115.721 538.017 115.925C538.221 116.128 538.463 116.289 538.73 116.399C538.997 116.509 539.282 116.566 539.571 116.566V116.566Z" stroke="#CDD0C4" stroke-width="1.36309" stroke-miterlimit="10"/>
<path d="M555.578 108.792H542.217" stroke="#CDD0C4" stroke-width="1.36309" stroke-miterlimit="10"/>
<path d="M555.578 112.129H542.217" stroke="#CDD0C4" stroke-width="1.36309" stroke-miterlimit="10"/>
<path d="M313.593 484.948H277.212C274.569 484.948 272.427 487.08 272.427 489.711V510.15C272.427 512.781 274.569 514.913 277.212 514.913H313.593C316.236 514.913 318.378 512.781 318.378 510.15V489.711C318.378 487.08 316.236 484.948 313.593 484.948Z" stroke="#CDD0C4" stroke-width="1.45924" stroke-miterlimit="10"/>
<path d="M278.416 509.447C278.416 509.447 287.698 495.256 288.991 495.256C290.284 495.256 301.516 509.655 301.516 509.655L278.416 509.447Z" fill="#30B47A"/>
<path d="M296.025 499.98L303.247 509.011H311.932V503.852C311.932 503.852 303.794 496.217 301.606 494.821C300.919 495.534 296.025 500.386 296.025 499.98Z" fill="#30B47A"/>
<path d="M283.191 494.761C284.532 494.761 285.618 493.679 285.618 492.345C285.618 491.011 284.532 489.929 283.191 489.929C281.85 489.929 280.764 491.011 280.764 492.345C280.764 493.679 281.85 494.761 283.191 494.761Z" fill="#F6A915"/>
<path d="M841.764 336.743C842.906 336.743 843.833 335.821 843.833 334.683C843.833 333.546 842.906 332.624 841.764 332.624C840.621 332.624 839.694 333.546 839.694 334.683C839.694 335.821 840.621 336.743 841.764 336.743Z" stroke="#221660" stroke-miterlimit="10"/>
<path d="M668.015 341.14C669.158 341.14 670.084 340.218 670.084 339.08C670.084 337.943 669.158 337.021 668.015 337.021C666.872 337.021 665.946 337.943 665.946 339.08C665.946 340.218 666.872 341.14 668.015 341.14Z" stroke="#221660" stroke-miterlimit="10"/>
<path d="M657.738 504.832C658.881 504.832 659.807 503.91 659.807 502.773C659.807 501.635 658.881 500.713 657.738 500.713C656.595 500.713 655.669 501.635 655.669 502.773C655.669 503.91 656.595 504.832 657.738 504.832Z" stroke="#221660" stroke-miterlimit="10"/>
<path d="M544.466 135.688C545.609 135.688 546.535 134.766 546.535 133.628C546.535 132.491 545.609 131.568 544.466 131.568C543.323 131.568 542.396 132.491 542.396 133.628C542.396 134.766 543.323 135.688 544.466 135.688Z" stroke="#221660" stroke-miterlimit="10"/>
<path d="M28.6511 418.094L32.0634 427.789" stroke="white" stroke-miterlimit="10"/>
<path d="M25.9951 425.026L34.8591 421.332" stroke="white" stroke-miterlimit="10"/>
<path d="M331.799 58.0107L335.201 67.7154" stroke="white" stroke-miterlimit="10"/>
<path d="M329.133 64.9426L338.007 61.2489" stroke="white" stroke-miterlimit="10"/>
<path d="M402.572 367.461L405.984 377.166" stroke="white" stroke-miterlimit="10"/>
<path d="M399.906 374.393L408.78 370.7" stroke="white" stroke-miterlimit="10"/>
<path d="M775.796 124.201L779.208 133.895" stroke="#F6A915" stroke-miterlimit="10"/>
<path d="M773.14 131.133L782.004 127.439" stroke="#F6A915" stroke-miterlimit="10"/>
<path d="M714.922 444.505L718.334 454.2" stroke="#F6A915" stroke-miterlimit="10"/>
<path d="M712.255 451.437L721.129 447.743" stroke="#F6A915" stroke-miterlimit="10"/>
<path d="M890.172 280.951L893.585 290.656" stroke="#F6A915" stroke-miterlimit="10"/>
<path d="M887.516 287.883L896.38 284.189" stroke="#F6A915" stroke-miterlimit="10"/>
<path d="M342.274 446.04L345.687 455.744" stroke="#4B53E4" stroke-miterlimit="10"/>
<path d="M339.608 452.972L348.482 449.278" stroke="#4B53E4" stroke-miterlimit="10"/>
<path d="M643.741 157.098C656.482 157.098 666.811 146.816 666.811 134.133C666.811 121.45 656.482 111.169 643.741 111.169C630.999 111.169 620.67 121.45 620.67 134.133C620.67 146.816 630.999 157.098 643.741 157.098Z" fill="#FDB222"/>
<path d="M645.412 154.127C658.154 154.127 668.482 143.845 668.482 131.162C668.482 118.479 658.154 108.198 645.412 108.198C632.671 108.198 622.342 118.479 622.342 131.162C622.342 143.845 632.671 154.127 645.412 154.127Z" stroke="#F67215" stroke-width="1.39787" stroke-miterlimit="10"/>
<path d="M655.47 130.37C655.47 134.559 653.61 138.065 650.148 139.916C648.586 140.758 647.163 147.135 647.163 147.135L640.408 147.007C640.408 147.007 639.304 140.223 638.12 139.401C636.562 138.322 635.309 136.861 634.483 135.159C633.658 133.457 633.287 131.572 633.406 129.686C633.526 127.8 634.132 125.977 635.166 124.392C636.2 122.807 637.628 121.514 639.31 120.638C640.992 119.762 642.873 119.333 644.771 119.392C646.669 119.451 648.519 119.996 650.143 120.974C651.768 121.952 653.111 123.331 654.044 124.977C654.977 126.623 655.468 128.48 655.47 130.37V130.37Z" stroke="white" stroke-width="1.85933" stroke-miterlimit="10"/>
<path d="M641.353 139.342L639.602 129.4L643.92 131.816L648.108 129.4L646.487 139.342" stroke="white" stroke-width="1.85933" stroke-miterlimit="10"/>
<path d="M638.12 139.401H650.148" stroke="white" stroke-width="1.85933" stroke-miterlimit="10"/>
<path d="M640.14 143.105H648.108" stroke="white" stroke-width="1.85933" stroke-miterlimit="10"/>
<path d="M644.795 167.09C644.884 167.075 644.964 167.03 645.022 166.962C645.08 166.894 645.112 166.807 645.112 166.718C645.112 166.629 645.08 166.543 645.022 166.475C644.964 166.407 644.884 166.361 644.795 166.347C644.707 166.361 644.626 166.407 644.568 166.475C644.51 166.543 644.479 166.629 644.479 166.718C644.479 166.807 644.51 166.894 644.568 166.962C644.626 167.03 644.707 167.075 644.795 167.09Z" fill="#221660"/>
<path d="M414.142 497.326C414.279 498.759 414.01 500.202 413.367 501.492C412.723 502.782 411.731 503.867 410.501 504.624C409.367 505.298 408.511 510.11 408.511 510.11L403.477 510.239C403.477 510.239 402.413 505.219 401.487 504.644C400.286 503.893 399.299 502.846 398.622 501.604C397.946 500.362 397.603 498.967 397.627 497.555C397.651 496.142 398.04 494.76 398.757 493.541C399.475 492.322 400.496 491.308 401.723 490.598C402.949 489.887 404.339 489.503 405.758 489.483C407.177 489.463 408.577 489.809 409.823 490.485C411.069 491.162 412.118 492.147 412.869 493.345C413.621 494.544 414.049 495.915 414.112 497.326H414.142Z" stroke="#EFDDC9" stroke-width="0.908743" stroke-miterlimit="10"/>
<path d="M403.199 504.466L402.453 496.96L405.765 498.613L408.8 496.672L408.83 504.545" stroke="#EFDDC9" stroke-width="0.908743" stroke-miterlimit="10"/>
<path d="M401.995 504.961L410.162 504.803" stroke="#EFDDC9" stroke-width="0.908743" stroke-miterlimit="10"/>
<path d="M403.149 507.338L409.088 507.07" stroke="#EFDDC9" stroke-width="0.908743" stroke-miterlimit="10"/>
<g opacity="0.14">
<path opacity="0.14" d="M291.06 406.359C296.445 406.359 300.81 402.014 300.81 396.655C300.81 391.295 296.445 386.95 291.06 386.95C285.676 386.95 281.311 391.295 281.311 396.655C281.311 402.014 285.676 406.359 291.06 406.359Z" stroke="white" stroke-width="3.51938" stroke-miterlimit="10"/>
<path opacity="0.14" d="M297.855 404.726L305.943 412.776L297.855 404.726Z" stroke="white" stroke-width="3.51938" stroke-miterlimit="10"/>
</g>
<path opacity="0.14" d="M6.61548 125.131L13.9574 132.44L35.6449 110.852" stroke="white" stroke-width="4.66628" stroke-miterlimit="10"/>
<path d="M718.911 132.677C720.713 132.677 722.174 131.223 722.174 129.429C722.174 127.635 720.713 126.181 718.911 126.181C717.109 126.181 715.648 127.635 715.648 129.429C715.648 131.223 717.109 132.677 718.911 132.677Z" fill="#CDD0C4"/>
</g>
<defs>
<clipPath id="clip0">
<rect width="964.86" height="562.09" fill="white"/>
</clipPath>
</defs>
</svg>
