<svg width="624" height="883" viewBox="0 0 624 883" fill="none" xmlns="http://www.w3.org/2000/svg">
<g clip-path="url(#clip0)">
<rect width="624" height="883" fill="#423EDD"/>
<path d="M313.518 149.421C313.518 149.421 210.933 127.961 190.098 235.994C177.4 301.887 235.628 342.17 271.869 344.77C405.677 354.391 402.099 210.224 402.099 210.224" stroke="#CDD0C4" stroke-miterlimit="10" stroke-dasharray="4 4"/>
<path d="M166.244 431.424C165.787 431.226 165.337 431.027 164.894 430.822" stroke="#CDD0C4" stroke-miterlimit="10"/>
<path d="M162.29 429.536C124.433 409.707 117.18 355.61 117.18 355.61L116.442 342.324" stroke="#CDD0C4" stroke-miterlimit="10" stroke-dasharray="3.94 3.94"/>
<path d="M116.332 340.877L116.25 339.408" stroke="#CDD0C4" stroke-miterlimit="10"/>
<path d="M136.348 335.597L134.865 345.644L138.562 342.295L143.771 342.684L136.348 335.597Z" fill="#4B53E4"/>
<path d="M81.7507 311.647H102.299" stroke="#CDD0C4" stroke-width="0.717998" stroke-miterlimit="10"/>
<path d="M81.7507 315.055H93.9467" stroke="#CDD0C4" stroke-width="0.717998" stroke-miterlimit="10"/>
<path d="M81.7507 321.694H94.382" stroke="#CDD0C4" stroke-width="0.717998" stroke-miterlimit="10"/>
<path d="M232.125 411.032H193.471C192.18 411.032 191.133 412.074 191.133 413.36V437.273C191.133 438.558 192.18 439.601 193.471 439.601H232.125C233.417 439.601 234.464 438.558 234.464 437.273V413.36C234.464 412.074 233.417 411.032 232.125 411.032Z" stroke="#F6A915" stroke-width="0.883422" stroke-miterlimit="10"/>
<path d="M230.31 418.383H219.302C218.528 418.383 217.9 419.008 217.9 419.779V428.085C217.9 428.856 218.528 429.48 219.302 429.48H230.31C231.085 429.48 231.712 428.856 231.712 428.085V419.779C231.712 419.008 231.085 418.383 230.31 418.383Z" fill="#CDD0C4"/>
<path d="M234.324 413.279C234.324 412.662 234.077 412.069 233.639 411.633C233.2 411.196 232.605 410.951 231.985 410.951H193.331C192.711 410.951 192.116 411.196 191.677 411.633C191.239 412.069 190.992 412.662 190.992 413.279V413.668L234.331 413.896L234.324 413.279Z" fill="#F6A915"/>
<path d="M464.503 135.702L463.5 142.495L466.008 140.233L469.527 140.498L464.503 135.702Z" fill="#4B53E4"/>
<path d="M209.327 419.654H214.875" stroke="#CDD0C4" stroke-width="0.485642" stroke-miterlimit="10"/>
<path d="M194.342 419.654H208.22" stroke="#CDD0C4" stroke-width="0.485642" stroke-miterlimit="10"/>
<path d="M203.786 421.96H214.853" stroke="#CDD0C4" stroke-width="0.485642" stroke-miterlimit="10"/>
<path d="M194.342 421.96H202.591" stroke="#CDD0C4" stroke-width="0.485642" stroke-miterlimit="10"/>
<path d="M212.441 424.266H214.875" stroke="#CDD0C4" stroke-width="0.485642" stroke-miterlimit="10"/>
<path d="M194.342 424.266H211.312" stroke="#CDD0C4" stroke-width="0.485642" stroke-miterlimit="10"/>
<path d="M203.933 426.454H214.875" stroke="#CDD0C4" stroke-width="0.485642" stroke-miterlimit="10"/>
<path d="M195.444 426.454H203.988" stroke="#CDD0C4" stroke-width="0.485642" stroke-miterlimit="10"/>
<path d="M207.645 428.878H214.876" stroke="#CDD0C4" stroke-width="0.485642" stroke-miterlimit="10"/>
<path d="M195.444 428.878H207.581" stroke="#CDD0C4" stroke-width="0.485642" stroke-miterlimit="10"/>
<path d="M207.891 431.757H196.92C196.101 431.757 195.437 432.418 195.437 433.233V433.241C195.437 434.056 196.101 434.717 196.92 434.717H207.891C208.71 434.717 209.374 434.056 209.374 433.241V433.233C209.374 432.418 208.71 431.757 207.891 431.757Z" fill="#4B53E4"/>
<path d="M43.1853 446.715C43.26 446.765 43.3194 446.835 43.3571 446.916C43.3949 446.998 43.4095 447.088 43.3993 447.177C43.3993 447.537 43.9305 447.53 43.9527 447.177C43.9625 446.993 43.9225 446.809 43.8369 446.645C43.7513 446.481 43.6231 446.343 43.4657 446.245C43.1706 446.039 42.8976 446.516 43.1853 446.715Z" fill="black"/>
<path d="M393.031 216.393C405.329 216.393 415.298 206.469 415.298 194.228C415.298 181.987 405.329 172.063 393.031 172.063C380.734 172.063 370.764 181.987 370.764 194.228C370.764 206.469 380.734 216.393 393.031 216.393Z" fill="#48FFAF"/>
<path d="M394.898 213.91C407.196 213.91 417.165 203.987 417.165 191.746C417.165 179.504 407.196 169.581 394.898 169.581C382.6 169.581 372.631 179.504 372.631 191.746C372.631 203.987 382.6 213.91 394.898 213.91Z" stroke="#0C8563" stroke-width="2" stroke-miterlimit="10"/>
<path d="M383.263 196.115L388.708 201.528L404.792 185.518" stroke="white" stroke-width="4.66628" stroke-miterlimit="10"/>
<path d="M217.256 342.412C228.075 342.412 236.845 333.682 236.845 322.913C236.845 312.144 228.075 303.414 217.256 303.414C206.437 303.414 197.667 312.144 197.667 322.913C197.667 333.682 206.437 342.412 217.256 342.412Z" fill="#BF38FF"/>
<path d="M219.27 340.304C230.089 340.304 238.859 331.574 238.859 320.805C238.859 310.036 230.089 301.307 219.27 301.307C208.452 301.307 199.682 310.036 199.682 320.805C199.682 331.574 208.452 340.304 219.27 340.304Z" stroke="#7C1FC6" stroke-width="1.7593" stroke-miterlimit="10"/>
<path d="M217.19 325.05C221.183 325.05 224.42 321.828 224.42 317.853C224.42 313.878 221.183 310.656 217.19 310.656C213.196 310.656 209.959 313.878 209.959 317.853C209.959 321.828 213.196 325.05 217.19 325.05Z" stroke="white" stroke-width="3.51861" stroke-miterlimit="10"/>
<path d="M222.229 323.839L228.22 329.809L222.229 323.839Z" stroke="white" stroke-width="3.51861" stroke-miterlimit="10"/>
<path d="M293.679 206.963C294.205 205.578 294.502 204.117 294.557 202.637C294.557 202.491 294.498 202.351 294.394 202.248C294.291 202.144 294.15 202.086 294.003 202.086C293.856 202.086 293.716 202.144 293.612 202.248C293.508 202.351 293.45 202.491 293.45 202.637C293.403 204.015 293.134 205.376 292.653 206.669C292.395 207.33 293.465 207.616 293.715 206.963H293.679Z" fill="#221660"/>
<path d="M369.326 293.735L401.332 343.418C401.332 343.418 420.773 307.241 423.65 303.51C426.528 299.779 454.638 315.305 454.638 315.305C454.638 315.305 438.591 347.619 430.534 366.193C424.255 380.675 388.073 378.12 388.073 378.12L360.701 338.248L369.326 293.735Z" fill="#282D85"/>
<path d="M454.638 315.305C454.638 315.305 426.535 299.779 423.65 303.51C423.65 303.51 428.549 292.919 430.497 292.001C435.868 289.453 476.411 311.434 475.223 312.323C472.766 314.159 456.107 310.964 456.107 310.964L454.638 315.305Z" fill="#221660"/>
<path d="M312.574 332.042C317.738 342.265 352.888 401.357 367.585 410.251C382.282 419.144 421.179 401.93 445.386 393.359L433.891 361.191L388.361 372.942L365.6 340.532C365.6 340.532 379.677 307.138 369.289 293.72L312.574 332.042Z" fill="#282D85"/>
<path d="M319.501 347.245L375.56 316.81L377.449 305.588L319.501 347.245Z" fill="#221660"/>
<path d="M323.641 230.097C327.389 228.298 362.744 235.128 362.744 235.128L358.878 262.243L340.433 258.402L323.641 230.097Z" fill="#F6A915"/>
<path d="M358.9 262.243L343.502 258.908L330.96 238.286C334.483 239.435 337.784 241.174 340.721 243.427C340.972 243.625 350.15 249.339 350.401 249.545C354.429 252.908 360.42 250.844 360.42 250.844L358.9 262.243Z" fill="#F68E15"/>
<path d="M206.469 248.186C201.895 244.8 198.494 238.161 198.627 234.129C198.759 230.097 201.113 225.669 203.467 224.89C205.82 224.112 205.953 226.968 205.296 229.054C204.64 231.14 204.64 235.664 204.64 235.664L206.469 248.186Z" fill="#FE9DA7"/>
<path d="M205.296 229.054C204.64 231.133 204.64 235.664 204.64 235.664L206.47 248.149C204.167 244.585 202.5 240.652 201.541 236.523C200.309 230.413 205.296 229.054 205.296 229.054Z" fill="#FF6688"/>
<path d="M267.353 207.47C263.664 214.381 269.995 234.452 270.504 235.701C271.647 238.484 273.662 246.232 288.514 240.181L291.871 246.622C291.871 246.622 309.667 239.064 311.017 236.376C311.017 236.376 307.645 230.567 303.831 222.231C300.282 214.447 296.512 204.165 290.314 202.542C277.484 199.178 270.733 201.198 267.353 207.47Z" fill="#FE9DA7"/>
<path d="M260.831 215.534C260.831 215.534 264.203 223.377 278.162 216.43C278.162 216.43 280.184 220.241 284.234 220.461L284.913 225.169L288.292 223.825C288.292 223.825 289.642 237.045 292.114 238.161C294.586 239.277 306.745 233.909 308.346 231.441C308.936 230.516 307.128 220.873 306.767 216.209C306.169 208.424 306.302 200.786 298.555 204.657C298.555 204.657 295.884 198.73 293.184 197.158C290.484 195.587 287.636 198.502 287.636 198.502C287.636 198.502 285.164 191.562 277.956 192.458C270.747 193.354 269.176 197.834 269.176 197.834C269.176 197.834 258.374 189.542 250.273 200.302C244.105 208.483 252.523 217.325 257.024 216.459L260.831 215.534Z" fill="#221660"/>
<path d="M216.932 239.85C213.921 240.372 211.029 237.383 210.291 236.083C209.554 234.783 210.594 233.277 214.475 228.533C217.352 225.015 214.349 223.326 211.081 224.861C211.081 224.861 204.145 228.114 202.714 233.057C200.796 239.667 207.414 249.949 207.414 249.949C207.414 249.949 213.316 268.816 226.508 284.826C236.963 297.502 246.245 295.497 251.594 295.365C256.943 295.233 273.47 288.131 273.47 288.131L257.363 265.364L246.127 269.932C236.712 261.853 226.383 243.118 226.383 243.118L216.932 239.85Z" fill="#FE9DA7"/>
<path d="M214.445 228.533C210.565 233.277 209.48 234.775 210.262 236.083C211.044 237.39 213.951 240.372 216.902 239.85L211.959 241.51L210.55 244.58C210.55 244.58 207.34 239.086 208.115 235.51C208.89 231.933 214.445 228.533 214.445 228.533Z" fill="#FF6688"/>
<path d="M257.326 265.349L273.433 288.116C273.433 288.116 267.434 290.716 261.502 292.817C260.211 293.272 264.712 291.083 264.092 287.073C262.838 278.936 257.326 265.349 257.326 265.349Z" fill="#FF6688"/>
<path d="M362.745 235.532C362.494 235.62 375.959 239.05 379.545 237.338C384.562 234.937 391.74 217.847 391.74 217.847C391.74 217.847 388.952 208.446 390.885 207.565C392.818 206.684 394.529 211.619 394.529 211.619C394.529 211.619 397.532 196.035 399.465 196.248C401.398 196.461 402.114 199.626 402.151 204.135C402.151 204.135 402.712 205.722 403.14 204.018C403.567 202.314 404.527 196.571 406.46 195.939C408.393 195.308 409.625 201.587 408.548 205.861C408.548 205.861 412.274 198.517 413.351 198.759C414.428 199.002 415.763 203.518 413.41 208.637C413.41 208.637 416.538 204.62 417.615 205.259C418.693 205.898 417.962 212.368 412.34 220.733C412.34 220.733 410.075 248.59 390.346 259.9C383.477 263.844 374.941 264.38 367.371 263.153C364.528 262.707 361.71 262.111 358.93 261.369L362.745 235.532Z" fill="#FE9DA7"/>
<path d="M287.156 226.117C288.801 221.196 290.159 220.469 292.513 223.282C294.866 226.095 292.099 231.742 288.824 231.507C285.548 231.272 287.156 226.117 287.156 226.117Z" fill="#FE9DA7"/>
<path d="M433.891 361.191C433.891 361.191 445.032 356.902 447.459 357.974C449.887 359.047 468.944 403.67 467.86 409.839C466.775 416.008 449.739 391.618 449.739 391.618L445.416 393.322L433.891 361.191Z" fill="#221660"/>
<path d="M256.375 262.691C256.825 266.723 271.412 288.799 273.433 288.131C274.783 287.683 284.463 282.755 284.463 282.755C284.308 282.806 301.92 322.774 317.753 348.118C317.753 348.118 366.448 317.486 383.551 300.903C383.551 300.903 329.484 233.218 323.626 230.082L277.712 252.71L256.375 262.691Z" fill="#F6A915"/>
<path d="M370.86 325.77C369.643 330.862 367.784 335.78 365.327 340.407C365.276 340.498 365.249 340.6 365.249 340.705C365.249 340.809 365.276 340.911 365.327 341.002L387.83 373.258C387.896 373.369 387.997 373.455 388.116 373.504C388.236 373.553 388.369 373.562 388.494 373.529L431.634 362.131C431.785 362.089 431.914 361.989 431.991 361.853C432.069 361.717 432.089 361.555 432.047 361.404C432.005 361.253 431.904 361.125 431.767 361.048C431.63 360.971 431.468 360.951 431.316 360.993L393.275 371.04C391.836 371.422 389.748 372.428 388.243 372.376C389.165 372.376 388.701 372.729 388.243 371.782C387.665 370.808 387.017 369.878 386.303 368.998L372.779 349.573C370.934 346.936 368.551 344.263 367.075 341.399C366.242 339.775 366.876 340.179 367.88 338.057C369.667 334.216 371.058 330.206 372.034 326.086C372.211 325.351 371.067 325.028 370.89 325.77H370.86Z" fill="#221660"/>
<path d="M378.032 358.143L365.873 340.701C367.266 338.146 368.462 335.49 369.451 332.754C370.255 330.522 378.032 358.143 378.032 358.143Z" fill="#221660"/>
<path d="M367.341 263.175C364.498 262.729 361.681 262.133 358.901 261.391L362.745 235.532C362.745 235.532 363.209 253.158 365.047 257.161C366.338 260.069 367.341 263.175 367.341 263.175Z" fill="#FF6688"/>
<path d="M209.856 246.482L210.594 243.743L211.398 240.563L214.445 228.533C215.055 226.954 216.095 225.575 217.448 224.552C217.808 224.271 218.182 224.008 218.569 223.766C218.824 224.153 219.043 224.561 219.226 224.986C219.911 226.513 220.234 228.176 220.17 229.847C220.082 231.86 219.049 237.463 218.171 241.98C217.935 243.192 217.706 244.323 217.514 245.285C217.145 247.121 216.887 248.347 216.887 248.347C215.627 248.966 214.223 249.235 212.822 249.126C210.948 248.825 209.856 246.482 209.856 246.482Z" fill="#F6A915"/>
<path d="M220.171 229.847C220.235 228.176 219.911 226.513 219.226 224.986C219.044 224.561 218.824 224.153 218.57 223.766C218.182 224.008 217.808 224.271 217.448 224.552C216.095 225.575 215.055 226.954 214.445 228.533L216.194 227.372L216.762 228.349L218.134 227.527L219.012 229.326L219.787 228.452L220.171 229.847Z" fill="#FCDE98"/>
<path d="M219.226 224.986C219.044 224.561 218.824 224.153 218.57 223.766C218.182 224.008 217.808 224.271 217.448 224.552L219.226 224.986Z" fill="black"/>
<path d="M217.515 245.285C217.706 244.323 217.935 243.192 218.171 241.98C217.284 241.149 216.184 240.578 214.992 240.328C213.8 240.078 212.562 240.159 211.413 240.563C211.14 241.62 210.874 242.678 210.609 243.743L217.515 245.285Z" fill="#3A4B73"/>
<path d="M217.515 245.285C217.146 247.121 216.887 248.347 216.887 248.347C215.627 248.966 214.223 249.235 212.822 249.126C210.948 248.817 209.871 246.482 209.871 246.482L210.609 243.743C210.609 243.743 211.804 242.553 214.298 243.06C216.873 243.596 217.515 245.285 217.515 245.285Z" fill="#F65015"/>
<path d="M226.346 243.104C227.822 238.425 224.775 235.025 222.421 231.265C220.067 227.505 218.629 227.879 217.588 228.665C216.688 229.333 219.064 236.744 217.847 239.145C217.138 240.389 216.715 241.773 216.607 243.199C216.496 245.968 216.791 249.552 218.953 250.11C219.691 250.301 219.632 242.92 220.392 243.008C222.369 243.226 224.363 243.258 226.346 243.104V243.104Z" fill="#FE9DA7"/>
<path d="M92.2718 438.166H83.9051C79.9915 438.166 76.2382 436.618 73.4709 433.864C70.7036 431.109 69.1489 427.373 69.1489 423.477V423.477C69.1489 419.582 70.7036 415.846 73.4709 413.091C76.2382 410.337 79.9915 408.789 83.9051 408.789H85.5356C89.4492 408.789 93.2025 410.337 95.9698 413.091C98.7371 415.846 100.292 419.582 100.292 423.477V437.329C100.306 437.486 100.259 437.643 100.16 437.766C100.061 437.889 99.9178 437.969 99.7605 437.99L92.2718 438.166Z" stroke="#F6A915" stroke-width="0.826538" stroke-miterlimit="10"/>
<path d="M183.015 407.364L182.21 412.836L187.058 411.227L183.015 407.364Z" fill="#FF6688"/>
<path d="M333.66 192.319L332.598 199.479L338.95 197.371L333.66 192.319Z" fill="#FF6688"/>
<path d="M150.441 301.189L147.978 317.505L162.81 312.707L150.441 301.189Z" fill="#FF6688"/>
<path d="M283.935 405.018L281.472 421.334L296.305 416.536L283.935 405.018Z" fill="#FF6688"/>
<path d="M78.0541 167.414C79.3051 167.414 80.3192 166.405 80.3192 165.16C80.3192 163.914 79.3051 162.905 78.0541 162.905C76.8032 162.905 75.7891 163.914 75.7891 165.16C75.7891 166.405 76.8032 167.414 78.0541 167.414Z" fill="#F6A915"/>
<path opacity="0.5" d="M32.3545 146.814C33.1328 146.814 33.7637 146.186 33.7637 145.411C33.7637 144.636 33.1328 144.008 32.3545 144.008C31.5762 144.008 30.9453 144.636 30.9453 145.411C30.9453 146.186 31.5762 146.814 32.3545 146.814Z" fill="white"/>
<path d="M173.305 346.327C174.479 346.327 175.43 345.38 175.43 344.211C175.43 343.043 174.479 342.096 173.305 342.096C172.132 342.096 171.18 343.043 171.18 344.211C171.18 345.38 172.132 346.327 173.305 346.327Z" fill="#F6A915"/>
<path d="M168.91 271.851L162.942 275.281L166.387 281.222L172.355 277.792L168.91 271.851Z" fill="#4B53E4"/>
<path d="M146.031 166.218L142.497 168.249L144.537 171.766L148.071 169.736L146.031 166.218Z" fill="white"/>
<path d="M137.352 215.071L140.229 216.562L138.768 218.537L141.269 219.918L140.037 222.209L142.516 223.414L141.225 225.367" stroke="white" stroke-width="0.802874" stroke-miterlimit="10"/>
<path d="M305.933 423.683L348.947 401.364C348.947 401.364 356.134 403.487 359.542 409.2C362.951 414.914 362.56 424.197 365.194 426.437C370.469 430.925 381.802 430.021 384.119 446.12L343.768 471.09C343.768 471.09 340.463 465.303 337.866 464.04C333.741 462.005 326.459 460.698 321.966 455.226C318.358 450.82 319.111 440.538 316.063 433.803C312.906 426.929 305.933 423.683 305.933 423.683Z" fill="#FFF9E1"/>
<path d="M320.785 427.891C331.019 423.397 339.644 415.869 349.715 411.132C350.733 410.654 349.848 409.149 348.829 409.626C338.758 414.378 330.104 421.906 319.9 426.4C318.874 426.856 319.767 428.361 320.785 427.906V427.891Z" fill="#D9C693"/>
<path d="M323.685 434.391C333.889 429.896 342.543 422.368 352.614 417.617C353.633 417.132 352.747 415.634 351.729 416.111C341.658 420.863 333.004 428.391 322.807 432.885C321.774 433.341 322.667 434.839 323.685 434.391Z" fill="#D9C693"/>
<path d="M326.592 442.33C336.796 437.835 345.45 430.308 355.521 425.556C356.539 425.071 355.654 423.573 354.636 424.05C344.565 428.802 335.91 436.33 325.714 440.824C324.681 441.28 325.574 442.778 326.592 442.33Z" fill="#D9C693"/>
<path d="M329.838 450.791C340.042 446.296 348.689 438.768 358.767 434.016C359.786 433.532 358.893 432.033 357.882 432.511C347.804 437.292 339.134 444.82 328.953 449.322C327.927 449.777 328.813 451.275 329.838 450.791V450.791Z" fill="#D9C693"/>
<path d="M337.961 454.463C348.165 449.968 356.812 442.44 366.891 437.688C367.909 437.211 367.016 435.706 366.006 436.22C355.927 440.971 347.28 448.499 337.076 452.994C336.043 453.449 336.936 454.955 337.961 454.463Z" fill="#D9C693"/>
<path d="M346.085 459.31C356.288 454.815 364.936 447.287 375.014 442.536C376.032 442.051 375.139 440.553 374.129 441.067C364.05 445.819 355.403 453.346 345.199 457.841C344.166 458.296 345.059 459.795 346.085 459.347V459.31Z" fill="#D9C693"/>
<path d="M248.753 403.531C246.982 402.892 245.802 401.393 246.326 399.579L246.857 397.596L251.336 381.278C251.454 380.824 251.712 380.418 252.073 380.117L254.862 377.811L255.6 377.224C255.68 377.157 255.775 377.11 255.876 377.088C255.978 377.065 256.084 377.066 256.185 377.092C256.286 377.118 256.379 377.167 256.457 377.236C256.535 377.305 256.595 377.391 256.633 377.488L256.965 378.362L258.094 381.351C258.261 381.79 258.287 382.27 258.168 382.724L253.874 399.095L253.298 401.335C253.141 402.002 252.808 402.616 252.332 403.112C251.594 403.846 250.679 404.089 249.1 403.641L248.753 403.531Z" stroke="#CDD0C4" stroke-miterlimit="10"/>
<path d="M256.943 378.362L256.611 377.488C256.573 377.391 256.513 377.305 256.435 377.236C256.357 377.167 256.264 377.118 256.163 377.092C256.062 377.066 255.956 377.065 255.855 377.088C255.753 377.11 255.658 377.157 255.578 377.224L254.84 377.811C254.893 377.968 254.992 378.106 255.123 378.208C255.254 378.31 255.412 378.371 255.578 378.384C256.031 378.457 256.493 378.449 256.943 378.362V378.362Z" fill="#CDD0C4"/>
<path d="M253.851 399.095L253.254 401.437C253.082 402.117 252.719 402.734 252.206 403.215C251.468 403.868 250.583 404.067 249.078 403.641L248.753 403.531C246.982 402.892 245.802 401.393 246.326 399.579L246.857 397.596C247.822 397.144 248.883 396.93 249.948 396.972C253.018 397.42 253.851 399.095 253.851 399.095Z" stroke="#CDD0C4" stroke-miterlimit="10"/>
<path d="M247.219 400.622C247.905 400.071 250.908 399.734 252.177 402.091" stroke="#CDD0C4" stroke-miterlimit="10"/>
<path d="M252.088 381.564L253.239 382.203L254.833 381.88L256.176 382.71L257.393 382.262" stroke="#CDD0C4" stroke-miterlimit="10"/>
<path d="M248.288 394.622C249.351 394.186 250.532 394.125 251.635 394.448C252.738 394.771 253.697 395.46 254.353 396.399" stroke="#CDD0C4" stroke-miterlimit="10"/>
<path d="M253.394 393.601L256.176 382.71" stroke="#CDD0C4" stroke-miterlimit="10"/>
<path d="M250.14 394.365L252.922 383.474" stroke="#CDD0C4" stroke-miterlimit="10"/>
<path d="M474.729 392.889C476.263 394.872 476.485 397.376 474.633 399.065L472.611 400.916L450.735 421.326C450.271 421.751 449.686 422.023 449.06 422.104L444.279 422.721L443.055 422.883C442.917 422.899 442.778 422.883 442.648 422.835C442.518 422.788 442.401 422.711 442.307 422.61C442.212 422.509 442.143 422.387 442.105 422.254C442.067 422.122 442.062 421.982 442.088 421.847L442.346 420.628L443.21 416.464C443.339 415.853 443.65 415.295 444.102 414.863L465.823 394.299L468.037 392.191C468.693 391.552 469.507 391.098 470.398 390.876C471.741 390.561 472.958 390.95 474.411 392.573L474.729 392.889Z" stroke="#FF6688" stroke-miterlimit="10"/>
<path d="M442.346 420.628L442.088 421.847C442.062 421.982 442.067 422.122 442.105 422.254C442.143 422.387 442.212 422.509 442.307 422.61C442.401 422.711 442.518 422.788 442.648 422.835C442.778 422.883 442.917 422.899 443.055 422.883L444.279 422.721C444.329 422.507 444.316 422.283 444.242 422.076C444.167 421.868 444.034 421.687 443.859 421.553C443.413 421.159 442.901 420.846 442.346 420.628V420.628Z" fill="#FF6688"/>
<path d="M465.823 394.24L468.17 392.037C468.848 391.393 469.699 390.957 470.619 390.781C471.888 390.553 473.054 390.979 474.441 392.522L474.729 392.867C476.263 394.85 476.485 397.354 474.633 399.043L472.611 400.894C472.611 400.894 470.058 400.578 468.693 399.425C465.558 396.752 465.823 394.24 465.823 394.24Z" stroke="#FF6688" stroke-miterlimit="10"/>
<path d="M474.375 397.251C473.209 397.383 469.557 395.621 469.83 392.11" stroke="#FF6688" stroke-miterlimit="10"/>
<path d="M450.086 420.466L449.245 418.939L447.223 418.168L446.308 416.287L444.626 415.928" stroke="#FF6688" stroke-miterlimit="10"/>
<path d="M468.878 403.251C467.371 402.986 466.001 402.217 464.992 401.071C463.983 399.926 463.397 398.472 463.33 396.95" stroke="#FF6688" stroke-miterlimit="10"/>
<path d="M462.407 400.777L446.308 416.288" stroke="#FF6688" stroke-miterlimit="10"/>
<path d="M466.613 402.223L450.514 417.734" stroke="#FF6688" stroke-miterlimit="10"/>
<path d="M495.04 225.434H453.03L446.64 229.51L446.22 225.434C445.437 225.434 444.686 225.124 444.133 224.573C443.579 224.022 443.269 223.275 443.269 222.496V211.597C443.269 210.818 443.579 210.071 444.133 209.52C444.686 208.969 445.437 208.659 446.22 208.659H495.04C495.823 208.659 496.574 208.969 497.127 209.52C497.681 210.071 497.992 210.818 497.992 211.597V222.496C497.992 223.275 497.681 224.022 497.127 224.573C496.574 225.124 495.823 225.434 495.04 225.434Z" stroke="#CDD0C4" stroke-width="1.81908" stroke-miterlimit="10"/>
<path d="M450.536 214.997H491.492" stroke="#CDD0C4" stroke-width="1.81908" stroke-miterlimit="10"/>
<path d="M450.536 219.485H491.492" stroke="#CDD0C4" stroke-width="1.81908" stroke-miterlimit="10"/>
<path d="M180.015 378.695H190.544L194.078 380.95L194.314 378.695C194.746 378.695 195.161 378.524 195.467 378.22C195.773 377.915 195.945 377.503 195.945 377.072V371.05C195.946 370.836 195.904 370.624 195.823 370.426C195.741 370.229 195.621 370.049 195.47 369.897C195.318 369.746 195.138 369.626 194.94 369.544C194.741 369.462 194.529 369.419 194.314 369.419H180.015C179.801 369.419 179.588 369.462 179.39 369.544C179.191 369.626 179.011 369.746 178.86 369.897C178.708 370.049 178.588 370.229 178.507 370.426C178.425 370.624 178.384 370.836 178.385 371.05V377.072C178.385 377.285 178.427 377.496 178.509 377.693C178.591 377.89 178.711 378.069 178.862 378.22C179.014 378.37 179.194 378.49 179.391 378.572C179.589 378.653 179.801 378.695 180.015 378.695V378.695Z" stroke="#CDD0C4" stroke-width="1.36309" stroke-miterlimit="10"/>
<path d="M191.887 372.93H181.978" stroke="#CDD0C4" stroke-width="1.36309" stroke-miterlimit="10"/>
<path d="M191.887 375.405H181.978" stroke="#CDD0C4" stroke-width="1.36309" stroke-miterlimit="10"/>
<path d="M15.6652 413.879H-11.3164C-13.2764 413.879 -14.8652 415.46 -14.8652 417.411V432.57C-14.8652 434.521 -13.2764 436.102 -11.3164 436.102H15.6652C17.6252 436.102 19.2141 434.521 19.2141 432.57V417.411C19.2141 415.46 17.6252 413.879 15.6652 413.879Z" stroke="#CDD0C4" stroke-width="1.45924" stroke-miterlimit="10"/>
<path d="M-10.4236 432.048C-10.4236 432.048 -3.53984 421.524 -2.58069 421.524C-1.62154 421.524 6.7083 432.202 6.7083 432.202L-10.4236 432.048Z" fill="#30B47A"/>
<path d="M2.63574 425.027L7.99221 431.725H14.4333V427.899C14.4333 427.899 8.398 422.236 6.77483 421.201C6.26574 421.73 2.63574 425.328 2.63574 425.027Z" fill="#30B47A"/>
<path d="M407.374 303.965C408.222 303.965 408.909 303.281 408.909 302.438C408.909 301.594 408.222 300.91 407.374 300.91C406.527 300.91 405.84 301.594 405.84 302.438C405.84 303.281 406.527 303.965 407.374 303.965Z" stroke="#221660" stroke-miterlimit="10"/>
<path d="M278.516 307.226C279.364 307.226 280.051 306.542 280.051 305.698C280.051 304.855 279.364 304.171 278.516 304.171C277.669 304.171 276.982 304.855 276.982 305.698C276.982 306.542 277.669 307.226 278.516 307.226Z" stroke="#221660" stroke-miterlimit="10"/>
<path d="M270.895 428.626C271.742 428.626 272.429 427.942 272.429 427.098C272.429 426.254 271.742 425.571 270.895 425.571C270.047 425.571 269.36 426.254 269.36 427.098C269.36 427.942 270.047 428.626 270.895 428.626Z" stroke="#221660" stroke-miterlimit="10"/>
<path d="M186.888 154.856C187.736 154.856 188.423 154.172 188.423 153.328C188.423 152.484 187.736 151.801 186.888 151.801C186.041 151.801 185.354 152.484 185.354 153.328C185.354 154.172 186.041 154.856 186.888 154.856Z" stroke="#221660" stroke-miterlimit="10"/>
<path d="M29.1672 97.2477L31.6905 104.445" stroke="white" stroke-miterlimit="10"/>
<path d="M27.1897 102.389L33.7709 99.6492" stroke="white" stroke-miterlimit="10"/>
<path d="M81.6548 326.747L84.1855 333.944" stroke="white" stroke-miterlimit="10"/>
<path d="M79.6775 331.888L86.2587 329.148" stroke="white" stroke-miterlimit="10"/>
<path d="M358.45 146.336L360.981 153.526" stroke="#F6A915" stroke-miterlimit="10"/>
<path d="M356.48 151.477L363.054 148.738" stroke="#F6A915" stroke-miterlimit="10"/>
<path d="M313.304 383.885L315.835 391.075" stroke="#F6A915" stroke-miterlimit="10"/>
<path d="M311.327 389.026L317.908 386.286" stroke="#F6A915" stroke-miterlimit="10"/>
<path d="M443.276 262.588L445.807 269.785" stroke="#F6A915" stroke-miterlimit="10"/>
<path d="M441.306 267.729L447.88 264.989" stroke="#F6A915" stroke-miterlimit="10"/>
<path d="M36.936 385.023L39.4667 392.22" stroke="#4B53E4" stroke-miterlimit="10"/>
<path d="M34.959 390.164L41.5402 387.425" stroke="#4B53E4" stroke-miterlimit="10"/>
<path d="M260.514 170.734C269.963 170.734 277.624 163.109 277.624 153.703C277.624 144.297 269.963 136.671 260.514 136.671C251.064 136.671 243.404 144.297 243.404 153.703C243.404 163.109 251.064 170.734 260.514 170.734Z" fill="#FDB222"/>
<path d="M261.753 168.531C271.203 168.531 278.863 160.905 278.863 151.499C278.863 142.093 271.203 134.468 261.753 134.468C252.304 134.468 244.644 142.093 244.644 151.499C244.644 160.905 252.304 168.531 261.753 168.531Z" stroke="#F67215" stroke-width="1.39787" stroke-miterlimit="10"/>
<path d="M269.213 150.912C269.213 154.018 267.833 156.618 265.265 157.992C264.107 158.616 263.052 163.346 263.052 163.346L258.042 163.25C258.042 163.25 257.223 158.219 256.345 157.61C255.189 156.809 254.261 155.725 253.648 154.463C253.036 153.201 252.761 151.803 252.85 150.405C252.938 149.006 253.388 147.653 254.155 146.478C254.922 145.302 255.98 144.344 257.228 143.694C258.476 143.045 259.87 142.726 261.278 142.77C262.685 142.814 264.057 143.218 265.262 143.943C266.467 144.669 267.463 145.691 268.155 146.912C268.847 148.133 269.211 149.51 269.213 150.912V150.912Z" stroke="white" stroke-width="1.85933" stroke-miterlimit="10"/>
<path d="M258.743 157.566L257.445 150.192L260.647 151.984L263.753 150.192L262.55 157.566" stroke="white" stroke-width="1.85933" stroke-miterlimit="10"/>
<path d="M256.345 157.61H265.266" stroke="white" stroke-width="1.85933" stroke-miterlimit="10"/>
<path d="M257.843 160.356H263.753" stroke="white" stroke-width="1.85933" stroke-miterlimit="10"/>
<path d="M261.296 178.144C261.362 178.133 261.421 178.1 261.464 178.049C261.507 177.999 261.531 177.935 261.531 177.869C261.531 177.803 261.507 177.739 261.464 177.688C261.421 177.638 261.362 177.604 261.296 177.593C261.23 177.604 261.171 177.638 261.128 177.688C261.085 177.739 261.061 177.803 261.061 177.869C261.061 177.935 261.085 177.999 261.128 178.049C261.171 178.1 261.23 178.133 261.296 178.144Z" fill="#221660"/>
<path d="M90.2355 423.059C90.3369 424.122 90.1378 425.192 89.6607 426.148C89.1835 427.105 88.4473 427.91 87.5351 428.472C86.694 428.971 86.0595 432.54 86.0595 432.54L82.3262 432.636C82.3262 432.636 81.5367 428.912 80.8506 428.486C79.9592 427.929 79.2273 427.152 78.7258 426.231C78.2242 425.31 77.9699 424.276 77.9874 423.229C78.005 422.181 78.2938 421.156 78.8259 420.252C79.358 419.348 80.1155 418.596 81.025 418.069C81.9345 417.542 82.9653 417.257 84.0177 417.242C85.0701 417.228 86.1085 417.484 87.0324 417.985C87.9564 418.487 88.7346 419.218 89.2918 420.107C89.8491 420.995 90.1665 422.012 90.2133 423.059H90.2355Z" stroke="#EFDDC9" stroke-width="0.908743" stroke-miterlimit="10"/>
<path d="M82.1198 428.354L81.5664 422.787L84.0233 424.014L86.2736 422.574L86.2958 428.413" stroke="#EFDDC9" stroke-width="0.908743" stroke-miterlimit="10"/>
<path d="M81.2266 428.721L87.284 428.604" stroke="#EFDDC9" stroke-width="0.908743" stroke-miterlimit="10"/>
<path d="M82.0828 430.484L86.4875 430.286" stroke="#EFDDC9" stroke-width="0.908743" stroke-miterlimit="10"/>
<g opacity="0.14">
<path opacity="0.14" d="M-1.04609 355.595C2.94721 355.595 6.18441 352.373 6.18441 348.398C6.18441 344.423 2.94721 341.2 -1.04609 341.2C-5.03939 341.2 -8.27661 344.423 -8.27661 348.398C-8.27661 352.373 -5.03939 355.595 -1.04609 355.595Z" stroke="white" stroke-width="3.51938" stroke-miterlimit="10"/>
<path opacity="0.14" d="M3.99341 354.383L9.99178 360.354L3.99341 354.383Z" stroke="white" stroke-width="3.51938" stroke-miterlimit="10"/>
</g>
<path d="M316.263 152.623C317.599 152.623 318.683 151.544 318.683 150.214C318.683 148.884 317.599 147.805 316.263 147.805C314.926 147.805 313.843 148.884 313.843 150.214C313.843 151.544 314.926 152.623 316.263 152.623Z" fill="#CDD0C4"/>
<path d="M153 296L45 282L-53 442H132L243 492L409 460L377 426L344 389L260 371H213L195 341L184 310L153 296Z" fill="#423EDD"/>
</g>
<defs>
<clipPath id="clip0">
<rect width="624" height="883" fill="white"/>
</clipPath>
</defs>
</svg>
